# xmcd
#
# Track frame offsets:
#	150
#	20341
#	39956
#	50454
#	74281
#	91135
#	122162
#	132338
#	155865
#	166396
#
# Disc length: 2382 seconds
#
# Revision: 1
# Processed by: cddbd v1.5.2PL0 Copyright (c) Steve Scherf et al.
# Submitted via: audiograbber 1.82.01
#
DISCID=81094c0a
DTITLE=יהורם גאון - אני ירושלמי
DYEAR=1900
DGENRE=
TTITLE0=הנני כאן
TTITLE1=אני עושה לי מנגינות
TTITLE2=המלך נימרוד
TTITLE3=תן שבת ותן שלום
TTITLE4=ותמו חטאים
TTITLE5=השר משה מונטיפיורי
TTITLE6=נומי נומי
TTITLE7=אהובתי ירושלים
TTITLE8=יונתי
TTITLE9=מעל פסגת הר הצופים
EXTD=
EXTT0=
EXTT1=
EXTT2=
EXTT3=
EXTT4=
EXTT5=
EXTT6=
EXTT7=
EXTT8=
EXTT9=
PLAYORDER=
